<mxfile host="app.diagrams.net" agent="Mozilla/5.0 (Windows NT 10.0; Win64; x64; rv:133.0) Gecko/20100101 Firefox/133.0" version="25.0.3">
  <diagram name="第 1 页" id="-2TUxWaIYkgOoIjm5ptN">
    <mxGraphModel dx="942" dy="1948" grid="1" gridSize="10" guides="1" tooltips="1" connect="1" arrows="1" fold="1" page="1" pageScale="1" pageWidth="827" pageHeight="1169" math="0" shadow="0">
      <root>
        <mxCell id="0" />
        <mxCell id="1" parent="0" />
        <mxCell id="v2PrhCpYd1FkFinGM10Q-7" style="edgeStyle=orthogonalEdgeStyle;rounded=0;orthogonalLoop=1;jettySize=auto;html=1;exitX=1;exitY=0.5;exitDx=0;exitDy=0;entryX=0;entryY=0.5;entryDx=0;entryDy=0;" edge="1" parent="1" source="v2PrhCpYd1FkFinGM10Q-1" target="v2PrhCpYd1FkFinGM10Q-6">
          <mxGeometry relative="1" as="geometry" />
        </mxCell>
        <mxCell id="v2PrhCpYd1FkFinGM10Q-8" style="edgeStyle=orthogonalEdgeStyle;rounded=0;orthogonalLoop=1;jettySize=auto;html=1;exitX=1;exitY=0.5;exitDx=0;exitDy=0;entryX=0;entryY=0.5;entryDx=0;entryDy=0;" edge="1" parent="1" source="v2PrhCpYd1FkFinGM10Q-1" target="v2PrhCpYd1FkFinGM10Q-5">
          <mxGeometry relative="1" as="geometry" />
        </mxCell>
        <mxCell id="v2PrhCpYd1FkFinGM10Q-9" style="edgeStyle=orthogonalEdgeStyle;rounded=0;orthogonalLoop=1;jettySize=auto;html=1;exitX=1;exitY=0.5;exitDx=0;exitDy=0;entryX=0;entryY=0.5;entryDx=0;entryDy=0;" edge="1" parent="1" source="v2PrhCpYd1FkFinGM10Q-1" target="v2PrhCpYd1FkFinGM10Q-4">
          <mxGeometry relative="1" as="geometry" />
        </mxCell>
        <mxCell id="v2PrhCpYd1FkFinGM10Q-11" style="edgeStyle=orthogonalEdgeStyle;rounded=0;orthogonalLoop=1;jettySize=auto;html=1;exitX=1;exitY=0.5;exitDx=0;exitDy=0;entryX=0;entryY=0.5;entryDx=0;entryDy=0;" edge="1" parent="1" source="v2PrhCpYd1FkFinGM10Q-1" target="v2PrhCpYd1FkFinGM10Q-3">
          <mxGeometry relative="1" as="geometry" />
        </mxCell>
        <mxCell id="v2PrhCpYd1FkFinGM10Q-1" value="&lt;div&gt;健康度&lt;/div&gt;" style="rounded=0;whiteSpace=wrap;html=1;" vertex="1" parent="1">
          <mxGeometry x="120" y="180" width="70" height="30" as="geometry" />
        </mxCell>
        <mxCell id="v2PrhCpYd1FkFinGM10Q-24" style="edgeStyle=orthogonalEdgeStyle;rounded=0;orthogonalLoop=1;jettySize=auto;html=1;exitX=1;exitY=0.5;exitDx=0;exitDy=0;entryX=0;entryY=0.5;entryDx=0;entryDy=0;" edge="1" parent="1" source="v2PrhCpYd1FkFinGM10Q-3" target="v2PrhCpYd1FkFinGM10Q-23">
          <mxGeometry relative="1" as="geometry" />
        </mxCell>
        <mxCell id="v2PrhCpYd1FkFinGM10Q-3" value="&lt;div&gt;...(n%)&lt;/div&gt;" style="rounded=0;whiteSpace=wrap;html=1;" vertex="1" parent="1">
          <mxGeometry x="280" y="360" width="90" height="30" as="geometry" />
        </mxCell>
        <mxCell id="v2PrhCpYd1FkFinGM10Q-22" style="edgeStyle=orthogonalEdgeStyle;rounded=0;orthogonalLoop=1;jettySize=auto;html=1;exitX=1;exitY=0.5;exitDx=0;exitDy=0;entryX=0;entryY=0.5;entryDx=0;entryDy=0;" edge="1" parent="1" source="v2PrhCpYd1FkFinGM10Q-4" target="v2PrhCpYd1FkFinGM10Q-21">
          <mxGeometry relative="1" as="geometry" />
        </mxCell>
        <mxCell id="v2PrhCpYd1FkFinGM10Q-4" value="&lt;div&gt;安全(30%)&lt;/div&gt;" style="rounded=0;whiteSpace=wrap;html=1;" vertex="1" parent="1">
          <mxGeometry x="280" y="290" width="90" height="30" as="geometry" />
        </mxCell>
        <mxCell id="v2PrhCpYd1FkFinGM10Q-19" style="edgeStyle=orthogonalEdgeStyle;rounded=0;orthogonalLoop=1;jettySize=auto;html=1;exitX=1;exitY=0.5;exitDx=0;exitDy=0;entryX=0;entryY=0.5;entryDx=0;entryDy=0;" edge="1" parent="1" source="v2PrhCpYd1FkFinGM10Q-5" target="v2PrhCpYd1FkFinGM10Q-15">
          <mxGeometry relative="1" as="geometry" />
        </mxCell>
        <mxCell id="v2PrhCpYd1FkFinGM10Q-20" style="edgeStyle=orthogonalEdgeStyle;rounded=0;orthogonalLoop=1;jettySize=auto;html=1;exitX=1;exitY=0.5;exitDx=0;exitDy=0;entryX=0;entryY=0.5;entryDx=0;entryDy=0;" edge="1" parent="1" source="v2PrhCpYd1FkFinGM10Q-5" target="v2PrhCpYd1FkFinGM10Q-16">
          <mxGeometry relative="1" as="geometry" />
        </mxCell>
        <mxCell id="v2PrhCpYd1FkFinGM10Q-5" value="性能25%)" style="rounded=0;whiteSpace=wrap;html=1;" vertex="1" parent="1">
          <mxGeometry x="280" y="170" width="90" height="30" as="geometry" />
        </mxCell>
        <mxCell id="v2PrhCpYd1FkFinGM10Q-17" style="edgeStyle=orthogonalEdgeStyle;rounded=0;orthogonalLoop=1;jettySize=auto;html=1;exitX=1;exitY=0.5;exitDx=0;exitDy=0;entryX=0;entryY=0.5;entryDx=0;entryDy=0;" edge="1" parent="1" source="v2PrhCpYd1FkFinGM10Q-6" target="v2PrhCpYd1FkFinGM10Q-12">
          <mxGeometry relative="1" as="geometry" />
        </mxCell>
        <mxCell id="v2PrhCpYd1FkFinGM10Q-18" style="edgeStyle=orthogonalEdgeStyle;rounded=0;orthogonalLoop=1;jettySize=auto;html=1;exitX=1;exitY=0.5;exitDx=0;exitDy=0;" edge="1" parent="1" source="v2PrhCpYd1FkFinGM10Q-6" target="v2PrhCpYd1FkFinGM10Q-14">
          <mxGeometry relative="1" as="geometry" />
        </mxCell>
        <mxCell id="v2PrhCpYd1FkFinGM10Q-6" value="稳定性(25%)" style="rounded=0;whiteSpace=wrap;html=1;" vertex="1" parent="1">
          <mxGeometry x="280" y="70" width="90" height="30" as="geometry" />
        </mxCell>
        <mxCell id="v2PrhCpYd1FkFinGM10Q-12" value="cpu使用率(50%)" style="rounded=0;whiteSpace=wrap;html=1;" vertex="1" parent="1">
          <mxGeometry x="440" y="40" width="150" height="30" as="geometry" />
        </mxCell>
        <mxCell id="v2PrhCpYd1FkFinGM10Q-14" value="内存使用率(50%)" style="rounded=0;whiteSpace=wrap;html=1;" vertex="1" parent="1">
          <mxGeometry x="440" y="100" width="150" height="30" as="geometry" />
        </mxCell>
        <mxCell id="v2PrhCpYd1FkFinGM10Q-15" value="响应时间(20%)" style="rounded=0;whiteSpace=wrap;html=1;" vertex="1" parent="1">
          <mxGeometry x="440" y="160" width="150" height="30" as="geometry" />
        </mxCell>
        <mxCell id="v2PrhCpYd1FkFinGM10Q-16" value="...(n%)" style="rounded=0;whiteSpace=wrap;html=1;" vertex="1" parent="1">
          <mxGeometry x="440" y="220" width="150" height="30" as="geometry" />
        </mxCell>
        <mxCell id="v2PrhCpYd1FkFinGM10Q-21" value="...(n%)" style="rounded=0;whiteSpace=wrap;html=1;" vertex="1" parent="1">
          <mxGeometry x="440" y="290" width="150" height="30" as="geometry" />
        </mxCell>
        <mxCell id="v2PrhCpYd1FkFinGM10Q-23" value="...(n%)" style="rounded=0;whiteSpace=wrap;html=1;" vertex="1" parent="1">
          <mxGeometry x="440" y="360" width="150" height="30" as="geometry" />
        </mxCell>
        <mxCell id="v2PrhCpYd1FkFinGM10Q-25" value="分类评分" style="text;html=1;align=center;verticalAlign=middle;resizable=0;points=[];autosize=1;strokeColor=none;fillColor=none;" vertex="1" parent="1">
          <mxGeometry x="290" y="-30" width="70" height="30" as="geometry" />
        </mxCell>
        <mxCell id="v2PrhCpYd1FkFinGM10Q-26" value="巡检项" style="text;html=1;align=center;verticalAlign=middle;resizable=0;points=[];autosize=1;strokeColor=none;fillColor=none;" vertex="1" parent="1">
          <mxGeometry x="485" y="-30" width="60" height="30" as="geometry" />
        </mxCell>
        <mxCell id="v2PrhCpYd1FkFinGM10Q-27" value="" style="shape=image;verticalLabelPosition=bottom;labelBackgroundColor=default;verticalAlign=top;aspect=fixed;imageAspect=0;image=data:image/png,iVBORw0KGgoAAAANSUhEUgAAARwAAAEYCAYAAACOZUn2AAAgAElEQVR4Xu29CXxdV3UvvGzN82RrsmXJQ5x4SmziJA4lBhpDSEIomd4Hr0kgNHyvaeukH+0jUFoINDxi2gIl0EfBgQzAozgjKSEuMfCcyYkHeYyHxJZkjbbmWbpXw7f++2hLR9d32Ge690jaOz/9HFtn2Gftff5nrf+a5o3zID20BLQEtATiIIF5GnDiIGV9Cy0BLQEhAQ04eiNoCWgJxE0CGnDiJuqZeaPe3l46duwYbdq0adoDHD9+nNLT02np0qUXPNiePXuopKRk8nctLS1UW1srroH/P3r0KK1du5ZKS0tnplD0rG1LQAOObdHNjRNDAae6uprKysqos7MzLOAAbKqqqgSY7N69mzZv3jwJMpBYdna2AB5cNycnZ24IUT/lpAQ04OjNEFUCAIY333yTioqKaMOGDfTyyy/Tli1bKJyGAzBqb2+fdj0ADABIajj4JbSc5uZmcT095pYENODMrfW29LQ1NTXU1dVFw8PDlJaWJv7s6+sLe41FixbRqlWrLvid+RrSLMO/DQ0NhT3e0gT1wTNOAhpwZtySxW/C0FjA03R3d9OaNWuEpgPtBiOchiO1IfMMzZqR+d81hxO/dfTTnTTg+Gk1fDYXyceYzSE5xUiAYyaYtenkswX1wXQ04PhgEfw8BTNpHI6jkXNfvnw5LViwQGhBoRoOSGbJ2UgtKJIJ5mdZ6Lk5l4AGHOcynNVXsOIWDz1WajgAHLjCMVJTU4XnSnupZvW2ifhwGnDm5rorP7VVwIml4eDG2tRSFv+sO1ADzqxbUncfyCrghONwzCYVZqe9VO6u0Uy6mgacmbRaCZirBBxEDp8+fTriDGAqIa5GAg7idTDA1SxevPgCbkd7qRKwmD64pQYcHyyCnoKWwFyRgAacubLS+jm1BHwgAQ04PlgEPQUtgbkiAQ04c2Wl9XNqCfhAAhpwfLAIegpaAnNFAhpw5spK6+fUEvCBBDTg+GAR9BS0BOaKBDTgzJWVdvE56+vr6eabb5684rPPPksVFRWTf9+4cePk/z/yyCN09dVXu3h3famZLAENODN59RI0dwCKBJIdO3bQ9u3baefOnWI21113Hd1zzz10++23E363bds22rdvX4Jmqm/rNwlowPHbivh8PgCRF154gZ544onJmQJkHnzwQfF3/CnBJxSAfP5oenpxkIAGnDgIeTbdIhzg3HXXXXTTTTeJxwwFowceeIDKy8vp/vvvn01i0M9iUwIacGwKbq6eJvkbaVK98cYbtHXrVgKwaMCZq7tC/bk14KjLSh85IQEJMvjr6tWrxb/ee++91NDQoDUcvUuiSkADjt4gjiUAEhnEMIAoHIeDf9OeKsdinhUX0IAzK5YxcQ8RytGEeqnMHqzEzVLf2S8S0IDjl5WYQfMAqMj+U9dee61wffcOBCgliaj1/LlpMTraJT6DFjYOU9WAEwchz+ZbjI+PU2fPEI3TPKre+yq9b/MHKT2VkUcPLYEwEtCAo7eFLQkER0appz9AIyPjlJedSmkMMrt27aL3XfMB6hsMsrYzn9LTkvjfk21dX580OyWgAWd2rqtnTzUyOkbdfQEaGh4RQJOVkTJ5LwAOTCyM/qER6u7ljp0MRHnZaZSSPN+zOekLzxwJaMCZOWuV8Jl2MYB09w0LAMllsJkXMiMz4Mhf4XgAFM7Jz0lL+DPoCSRWAhpwEiv/GXH3fjaRADaGtpJKyWwuhRvhAAfHQSvC+YGRMcpn4DFrRTNCAHqSrklAA45ropx9FxoOjFIXaygghqGhxCKDIwGOlMwgm2E9/UGaz6pRHms7aXBr6TGnJKABZ04tt9rDjo6NC/5lYCgogCY7c4qniXSF3v4R2r17N914/R/HvAlIZVw/Iz2Zzax0SgIC6TEnJKABZ04ss/pDwvME8yeHQQbm07x50cGgtmmAHvnpu1TfMiBuUrognT5721JatzIv6k1ZaRJ8UN9AUPBBADY9Zr8ENODM/jVWesIBeJUYAMDPAGhUvEp7DrXT9qdrqacvOO0eudnJdM+tS2nTZUUx7x1kXgf3xZ8glTPTY2tTMS+qD/CtBDTg+HZp4jOxQNDgaUZHjXiajDT1uJlvPX6K9hzqCDvRlZU59ND9a5QfAvwOvFkS8FI1v6Msu5l0oAacmbRaLs51DDzNhEkDAhcmlNXxVw9V0/mO4bCnpSTPo5998yqrlxTBhPjJ5vge8DsxLDrL19cnJFYCGnASK/+E3B15T+Bpspi0BXcy3yZp+z//+QjVNfWHfYali7No2+fW2Xo+CYYIHoQbPScr1dZ19En+k4AGHP+tiWczMsyWYXZLzxPmkxOz5ZX9bfSDHTUUZNd5uJHOYLb1k8voinWFtp8nEET8DvK02I3OwGPF3LN9U32ipxLQgOOpeP1xcRCy0GiQ/wSgcUrMPvp0Df32SA8lF+cStfdSoNPwUMmRnJVG8/h3o229dN36fLr75ipHguhn93wP8zsgsmFmqRDajm6oT/ZMAhpwPBNt4i8sXc89SEdgnibXoWlyqraXHmWvVP1IEiWV5NKSqlxaWJBGTW+fp+6WPtZ2AlS4KJ/KV5dQa3eAGmp7aPR8D5XNH6HPMOisWcEA5WBIlz20HfxofseBMBN0qgacBAne69vK4DpEB+PlTEpyFlz3wh+a6ae/baZkBprcqkKqKM3gFIXpkcJtbW20YMGCyUfrHxwV8Tk9dZ0MPL308fcuoE9cP9W/yo4MkCYB4BkEv8PajkpQop376HO8kYAGHG/kmrCrDjGngiheZFaKshEO3cvdHGOz/aka2tcwLLSa0so8qijLDPt8oYAjD2o6P0RNtd00wtrOimyiuz9eRcsqshzJCGkX4KPA7yB+J12XwXAkz3idrAEnXpL2+D4yQXIoYHh23EiQ3Hu0k7Y/W0u9mRmUXp5PSypyqCAvsvs8EuDg0REc2NA8QH31XQJ47thSTjd9sMyxVKDJgd9B7R1ocpESSx3fSF/AFQlowHFFjIm9CL70IIUNbsMdF/KTL9TRr/d1Cq2msJLBhrWa1JToNW2iAQ4kBE6p4dwgtdR2CRNr3cJk+swtVSIdwsmAlgPQgRxgZrklAydz0ueGl4AGnBm8M1A2Ai+Z4b1x5+tex7lR29kL9S6H18ALtXhpPgOCWp5TLMCRou7sCVJ9Yx8NNnbTvPYeuvvGCtpydYnjlZBaHrxyAF83tDzHk9IXmCYBDTgzcEMMczoCeJoxxbIRqo/429fP0aP/2UBJDDRZS/KpclEWk7LqqQ6qgIP5jHL4Dgjl1jpoOz10VVWG4HbycqxHPIc+n4w3SppvALGTeCNV2enj1CSgAUdNTr44SpSNYI0GiZa5WSmcjuCO+TQ0PCrc3a+yWgMTqriKTajyzAsq+kUTQpBrG3d3tU/zUqkIrb0rQPX1vTTc3E1ZA4N090eX0Hs3xE76VLl270SaBOKOADx2I6pV7qWPUZOABhw1OSX8KKNUJ5eN4KC6PI6ncSsG5dDJLtr+TB21J3OGeGkeVXJsTVG+OpABBGHCIHq5p7uDcvIKmbidZ6nGzXBgTHA7Hew+HznXS3+8JlcECyIfy+kw0iQCBPPTjVgkp/OZ6+drwPH5DpgqG4F0BHeLke/Y2UBPv9oqtJqCqgIRWwNvj8rAiwzOBO1hkjkXC3VzOjraKL+giM2lMQGI8BhZ0SrOtw/T2ToOFjzXQ0WjAfrMxytpw6p8lenEPAZpEgBsACTkmMmpF3rEXwIacOIvc6U7ov5vN+cRjXDZCEQIu/mCnOMXe/tTZ+ho+6gI5CuvyqPy4gylecHTNMJzG+X/QaU+8CRyAHAKC43Av9ExPobnLrQdBh5VjWxweIzq2X3eJYIFe+jGKwrpzpsqleamchD4HXj0Ujg+CZqi5ndUpObeMRpw3JOlK1fCC93JQNPHGd1eZErv5qTL7c+fpZGCbMpanE8VTAyrErUAmqAEERPQhAMc+W8AHmhC6FOVbKFVTHPrEDWKYMFeqkwbFYTyxUtzXJExLoJoZWGiMg/mJGPetQnNkQtpwPHRQoPkRDEsp2Ujwj0SgGz702do17FeodUsmIitUUl5gPkEngZmE47Hf+GGWcMx/36cDS9oOyjGDhe+qpnVx3WSwe0YqRE99N/eX0K3fGiRaysmSXhoPfnZOk3CNcFGuZAGnHhIOcY9BjkbGkAD8wTmE9qxuDlO1vQyMVxLjSLpkonhpZx0WRg7tgZud3TWBFDAfJofRqsxzzMS4MhjxmBmMXgJfgfAo2hnNbQMUnNdtwCdS/LnC0IZgYhuDaRJQOMBsObnpsfsTuHWfefidTTgJHDVZaAaNrxRz9d9IvOF33PS5csy6bJAvKiZ6bEBDRoNwCGUp4kmrliAYzazJL+jamYhp6uei30NiNSIXvr09Yvo+mtKXV09EUjJwIP8M7cCKV2d4Cy4mAacBC1iZ88Q9XLHAhCX6Frg9ujsCYjYmv2NRtJlGcfWLGYvVKwBEARXA20LZK+VoQo4k8DD9wLHAwJXpVUM458glM9PaDvvWZTG3E4lLeASGW4O3S3UTWlOv5YGHO9kG/bK08pGsFaj8qJZneKbhzvo0efqqC8rkzIW5dHixdlUmBcd1ARPwzwL2BnMKVZ7mHBzsgo4uAbMtREGHaR9q/I7Hai108CpEU3dlNrdz8GCFfT+KxZaFVPU42UPdal96jQJd8SrAccdOca8ytBEeU+jXGaqZ+UUnvwVJ13u7xTEcCHH1sCEihZABzIZlQDxJ8hcs5s75kOFHGAHcMxmFkAPtE5KclJMNzoim6HttJ9lE4uDBd93USYngi5VMhetPJco98H8GoAYiaFu82tW5jIbjtWA4/Eqgqvo6hsipA/AdEI3Ai8GGtKhbs1prvYJsFnMsTWxsrAFT8Pzg+fJCdDI53ECOGbgEfwOk8qI4Yk1WjuHqb6ul4ItPZQ3PER3/8kSutJBHeVI90PDPvA7qKucz+to1dyM9Rxz5fcacDxcackFoAULSEivxs7XWujHv24UQJO9xNBqsrMiE9B4oWEyGG5uDspzaWJuAI4ws/gH0cowtxCtHMt1j9QIaDsdE4mgqKP8aY7bUXSCKT+9KNnaP0y93B8dWqruFqosuskDNeBYl1nMM1D0G9nciGKFm9urot+DQ6OilMTrZwZEhrdIumSwifSiyXQEvNFG9K9bUGOIxC3AkQIW/A4DDxARgYOx4nda2oaoYSI1omw+ggUrae1Fzuooh1tsNA+EGx1mHYBH8zsxXwkNOOoiUj9Slr3Eiw3zycu2JodOdNGPuBpfR3I6pZbn0ZIlORGTLiVPAy+PFTe3+pN7AzjTzKwJFz00nmg4iTrKiNvprusQRb5ufu9C+n+uX2z1UZSOl91CoYEhcDBWgTKli87yg7SG48ICQ/1HRvIAazYAGrfKRkSa2i9faqBnXptKuoRWk5Ya3oWNXCyQwgCa5KTY8TdOxOG2hhM6l8k0CSaVY/E75jrKy7PGRbDg8gouqOzBgOexq2eYawexmZWTqhzQ6MFUfH9JDTgOlwgtWEAmggyG+RRL7XdyO+QXoSfUsY6JpEuuxle+MHx5TgTtIUoY2oCbPE20+XsNOLj3NH6HieVoYQW9nBpxloMF+yfqKP/pljL62AfLnSxBxHOh1cLMQvBgLmejO23J48kkfXBRDTg2FwHajMg65q8timF5nXX8f/e20qO/qqeRwmzKruBSEpx0mZt9ITE8WTZiHBqNvXgamyJxncOJNg/J78QqgxGujjK0nbIIQG332eV54Heg7QLw4Sjw0qx2OtdEnK8Bx6LU5YYCmel22YhwUwHvglISv3vbSLpcOBFbE5rWhBdLep/ccnNbFE1cAUfOTbUMBuooNyA1oqGL6yj3TtRRLrb6iMrH44OEdAzEQOluoVNi04CjuIWMynHDXDbC4GnioTKfQNIlpyc0jSVPdrosDpN0aZSNGDNcyDESLBUf19Zh8TCpIk0M0crg0lJZ44zkRgcgG3WUjUTQKyu5jvLNlQwI7qeWyHmKbhJsakELNrqFuusZtLVQCTwpLODs3r2bcnJyaMOGDVRdXU3p6em0atWqmNOsqanh+rT1tHnz5ojH4nplZWVUWjo98Q73jHZezJt7eEAv16aBmxu1cQE2XqQjhE7/+d810c9/1yK0mrxK7nRZlnFBFK1q2QgPRTPt0okEHExEtQyGuY5yZv8A3X3TEvqjDVMdQ92WlyiDwfsHUcvxcCq4PX83rzcNcF5++WVx7eXLl9PSpUvp+PHj1NjYOO1+V111lQAjDIBHe3t7zPlkZ2fTpk2bJs+RgNPb20vHjh0Tv/Mj4Ai3J28UfJRQD9dpF8uYguIDOjlP6EdMDFc3BSImXVotG6FyXzeOSTTgyGdQKYMxVUcZqRE99Merc+jTzO146dqWaRKYJ4qrpXPU8lwbF2g4AJH8fKOOrFlbgfbS1dUltB45ImkrZiG2tLRQbW3tNMABSAG4GhoaxKHQnvwEOAj5h/mEdizI5o5XYNeeQx1cja+WBrKyOOmSq/GxG7cgd3oqBNzc4I+8jKex8xKInt9cRF2WGLVzDbfPkQQ6yPNIZTC8rKMc6XlEfWWOWEY9IPA7sVz8bsslkdebBBwAw9GjRyfnAq0kEAiIn9BRVFQ0DXhUH0CaagC0c+fOUV9fX8RTt2zZonpZ146D5wOuzdAulrC78TsvxxPP19GLByInXYJ/QDwNimD5qZ0tXmoQt3h5utG1IbeQwRCJoNZKW3gpW5g0o9wICx7FcPwOIrbrOVhQ1lH+6BVFdAebWW6PUP4GnFN79xBlckiFVzl2bj+D0+tdoOHs2bOHSkpKhEkVbkhNZ8WKFfTmm28q33/t2rV06tQpYY7BpGpubp7GDflFw8ELhAEzKhzB5zbw1DT0i7o1pwf5K8x8TcXSPCopmsq7kmUjkM5tRNn6g3SEWQfTBTgs853QCK+gsCju8T8qmxDrBuDBgEYRLl7KXEd5SSqnRrCJdYmLdZSxdtddd90kDXHnnXfSfffdJ+bV3NRIN9988+Sj4Hf333+/yqPZPgaUBt7hRYsWCStD/n3x4sXC+gj9d1AtsHpSU1MnLRYz36sykWmAI2+IE3Hx06dPh71GNA0HgFVVxf2iQ0hhaFAAGQy/kcYPPPAA7dq1S8xt9erV9MQTT0w+97/+67/Sk08+Oe13boHOS6+20E9eDJ90Kboj8BcQgOO0bITKRlA+hvEOX2a8JGgPYzZVzJ03/Wr6CTNrQiNDjlsofqOOcj3XUe6dqKN8++YSuvXDzusoA2ywzzC2bdsm/ty4cSM98sgjdPXVV9Ndd90l9h3k2tTYIMBH/k55bWwcKN95UBzgU6WyEenfcQuATEVFBQ0NcRUE/jHTLLGmMA1wwMngRrhYKF8jLxTK5eB4nCc9TJEAR54veZ8s5ikiaUhAUK89VniZ8eL86vlnafv27bRz504xRSz85ZdfLr4uO3bsmPY7fJ1uuOEG8TsnoDOApEsuJfFGDSddslZTMhFbY8TRGm1Y8MIiQjgeHrFYm0T+XsS8AAD55QlHroa2+oWMkOAIbSiZTSwvo7BVn2Has0yU5giXXIt8rBZ2n4+4WEf5U5/6FN100010++23T+41/P22226b1FxRSB8m1t2fnn6s1eezcrx0DoUqEpH+XdIvdt7TScCRHqO0tDRBGsOkApKFcjihkwoFIABOKDcjvV4Qgh/c4iCEwdOUL8ymf/v+I9TU1CS+OnhBvvvd707+HeAjNwh+99RTT00CkF3AOchJlyho3pHKyX7c6XJJ5VTSpeBpGATxQscrHUFlY05W5eODo2VtR+otPs19b7OaoMo8rR4zlSaBou4Xdgvt7uU6ylz2YqCeO4K6UEcZ++eFF14QmgxMk3vuuUd86EL3ErQhqf1suPxKz4u6JwRwABwZGRnC7JGAY15ACRSDg4PTvFcAGICSVQ0nEXE4okg2g425bARsVaiv+/btE48LLQYaD7Q8/P+DDz4oVF5sCvOxdgDnF7+pp+feaBOlJAoquW4N9+9G0qXhTTG6I/iJpzF4j+k8TbSXOhLgTGkV5vyuyO1mrAKH0+MlvxOujU1oHeUN5amiR5ZK14vQecn9I/9dmu9yL0l+Dvtu/fr19PDD26i1c0CY1kaRffeLt0ltBU4aaSpB2Yj075g7wmfAyUqKxLZJJTUQAA5sMwzE4UiPkXRxSy0Ix3R3d1NeXt7kcaomVTwBB+5txNPgxRblPSfiH8wLbI4nMoMPAEfGENkFHGQuoyfU8U4GlMlOl+mCcBWmncXuCE5fMJXzJ13KzHPA5FAB2FiAI+/rdqVBledROUZ4syLwO0iNqK9HHeUuSkEd5Rsr6ANXqtdRlloLeByzSSXNd8zvjTfeoK1btwquRx4DuaPdM5KEk9nLBuBxq76SBBVpgci/42MLDSz03wEy8GSbrRyAjySXVWQcNg4HkcUSaELNKvMk4HWSmk2oWz305pgsQEZqSjg3nMtdnmc2w1QeJNwxstHZABrZc6BVNlfeMw9sAphNILElkQeSeP/+/ULtlRqOE8D5w1uttP1XZ2msKIeyKrhAlki6TBEajVE2wl9u7imehiwnpKoCDtbAqNHDpPiEVqfao8ruXrByHrg9EMuhaRKYb33zoFFHmU2sa1ZkiWDBrIzYZT9CP1bYe+AIpYmF/8celB+7cAAPfgeJodjHiN/xicPSimhp1uZSyVauCNpD8F44wlK6KSNpMZLDkaSeeYPE+uKDj0Epid8dn550ac5yTuL6NP5wchvdEwDQVrtjmnebFcCR5/md3wEgQqMwk/etHVxH+SzXUeYIZVFH+WOx6yjH0nDM5nvoG2zea1PdQrmXWZiPqKW3PwEHzzrAgfoJngaxFqhLkhqln3UsDSeclwpEH9TdaIDz9ukeevSZOmoeN5Iu0emyiNu0+JGnwZ4T7vcwL5bV/WgHcOQ9jH5YEyEAUdoJW52T0+ONeCNkaTHwmMqcTtZRZm1nlIEHdZQ/9SeVUT1xoRzOtddeO81FHjpX+ftwe01WLcD8oL3PlDIYswpwTtc20rz5KVSysECpi2U4Dgf2qXSRYwOYY3RkMFY0sHluVxP94vctAmiQdLmEky7hAfEjTyPiaXjD4uuNKFzplrf7kjoBHHnPSX4HLWssNuKzO2+V82QZDFE50RS/c66dtZ1azj5n0CmdP8JdIypp3cq8sJeMFEgaK5gz2n6DI+RcK5fcoBFaVulNcTEV+ageM6sA5+DRU9TV1kTl5eXCrZ+cHDs5LlY0cejvIy0+mrMhtqa6JSjAppzbtJQsSBcxNTDnfJWOAPNpomsDwNAt/sQNwDHzO5A1QMet+am+FNGOM/idcaE5yzSJqTrKnaLsxcevXkCfuKHCjdtFvcbIyAjBuwy+tah4EV26ZqXn93R6g1kFOHXN/JXhejFYhPPnzwvQQZi26rCbM/X6wXZ69PmzNJjDfbs56XIRE8MgEqfKe/qDqZk0D0DUxijPqSozpxxOtPtIfgdEFwIHY2kCduZs55xIZTCazg9SU22PCBZcnkUTdZT5fzwYMM+wz4uLi6mysora+INXUep+hwq3pz7rAGdJqVE6o6enh86cOUPBYJCWLVsmXHlejMeeq6WXqrsmO12WLeD2vaKxHPJ1/JPAOMLJi4gpEZnTHpkqbmk4oesk0iTQ73wiBwoRPH4YAHBDU0TgoKGJoY4yggX7ziJYsIfcrqOM8A3s65SUFLGvc3NzBcfU1NqnASfemwIajgQceW9kpWOBkDSKBcrMzHRlWmfq+0VPqJohdmvDhOI2LYX5RnGuRFbdC304UTtnopyFW/EbkQToFeDI+xn8Dlc2ZL7JV2aWqDZodDA1ZDxPVBZsqWVCmd3naxcmiWDB8uIM23tvYGBA7GNkBGAfI+dJDg04tsXq7MRwgCOvCPUTP0gsxY8T7cOcdJnFnS5RkDuHS0j6Ke9JfH35y8eFNYRGE488Jq8BB2sp43f8yO8YybZjk2UwECzYiK4RE3WUP33DYvrQe6eAQmW343qoJ4UfUAThqjhowFGRpAfHRAMc3A6R0QCdjo4OsXAgl62MvoERdnfX0p6aQUEML6hgzaYYBZT8wy+EKxth5RmdHBsPwJHzkwXj8XfDw+aPEVoGAwBprqN8FddRRrBgfo4RhIqe80jmLeSwidCBHD/s18LCQrFfEZAbbmjASdDaxwIcOS1kwkM9xcBCFhQUxJzxgbc76dHnzlJnKsf2lOVRWXmW6HTpF/MJRCZ/DEVofmjZiJgP59IB8QQcOWUzvyPc6N7WSVOWFDQTeLNg+sHMghezvr6Xhpu7KbN/kD754cV04Hgn7T3SIa6ZlZFMt1+3mG7YXEqdnZ0CaDBgPskKnJFurgFHeVncPVAVcORd8QUB8IBQll+QQye66Vd/aKJz3Kcabu0PXLGQGrk+ynN7OOkSsTWcnrCoBAXNY7vc3X26yFeT6QhJ2NwpiSOqEwE4kIpRBsNIMvWdG93E7xjaDqdGnGqjYGMnvg4XLOq1V6TRmop+ATSqGrgGnHi9aSH3sQo4crMCdOrq6qh9sIx27Oq+YPbzuIVr6rKFVLokl/maDJ/4SEzpCCFRsAkSPyUKcOTzmrPu/QQ808pgMLF8prqFzh8xitGFDvCAP/76Ro4cVjcTNeAkaMfbARw51QZWdT//rePs0Qk/+WVbLqKSRYbLPdHDnPcky3smek64f6IBR8pA8juI2/EqBMCOvOW61bxxltpOG6ZUuPHQ/WtoJddJUh0acFQl5fJxTgBn52vnRLJlpLFs0xIqudi73kWqojDKWRieEFHeE3q6DwbiZLq6OmjBgsTLSIhjovQHeBS/hSqc2VNP5062Rly1b33+Mlpcqu5C14CToBdgNgMONhWABkFmKJvgF7sOeBdgsEEoHtrE5OQWiLIWfimdYHaj+6E2NMjk1joO3ttdH/YtQWfV7/39VB3TqvUAACAASURBVCsmlVdJA46KlDw4xgngtDBJ/NcPHxJRm+HGRddW0oLF3kQrRxOFjGbFMfB2xCOeRmVppoq8g6jltjDz2BPT0cYelcLJusfmJEeVa3p5jEiT4OA8AGOiyrcODQ3S4OAApaWlU9vJbmo83DLtkeGp+od7V9GyxdbSIQTgtPVTRYm6GealrKNde9amNtgR6I6dDYSf0LFweSGVri8UYJSewbWIU6bauNi5j9I5pu4IofVYlM738CBR5F2YKtPrxJg7b8rqeYly0Ud6fKMMBtIk4teHPRDkNr+DQ+JjkZGRyfc2PJyttZ3UcLyNhrmM6OUrc+nuW7h0aYH1vaUBx8PNHu3STjQced3fvn6OXvhDM0HjmcemQeHyIrroikVc9mIeVyjkjcNfqfnzk0T9Z7lx3H5cvKzIfUL9FYTx+yW4ZKrIO2sJYZIpQ1v9giSVEc94lnBN6NyWncr1oMMCdGQ6glexVKOjI6zRDPKHapSD9jK4n9N0MEHFx8ZzQ3S+uoG23lhO711vT4PWgKOy6h4c4wbgyGk9/dt6empfDy28jEtdcPa3eQB0hngjpaVz4SP+YrlFqIhgsYmcHCP50y9JisYLGiudIFJvcZmlDuA08qA8WHwbl/QuTWJcmE7DQ8OsEWcIsAk3ADhovtdyoJHu/XAJbd6oXiPZfD0NODYW341T3AScgyfa6eGf1lHW+gpae9GFBZXw8g0O9ou6zAAd2OV2x7SyEX7SBODpgSbAGpfMho72jJEAR55j8FHMozDghGtCZ1d+Ts/D8yFwULTncdjGZphLjgJs0LMpIyMrakkNAE5L2zA1VzfSPR9YSNduKrb1KBpwbInN+UluAk7j+T76+g9OUe+iBbRq3cKIgVgjI0GhNgOAYGalpFyYExPpyWRchiwk7qem9lPN+GS/pthqSSzAMeRgtMTBSyJKZUQpAet8R1i7gixzKtzoFkt4BIMBsQ8Q+4N9kJwcu6ULAOd8e4CaDjbRnVcX0PXXlFqb8MTRGnBsic35SW4Dzo6dzbS3cx5VXlrMZF50DWZ4GPzOgKgyiC9brGx0IyqWuzbwxva6bIQVyRr8kfTmWOsdpQY4EnaMWjLj4wCdC5vQWZmzq8dOdJMQJWFFXaPoqSIwg6Hpovpeejo0XXXSF4DT1hmghupm+sTGXPrYB60lE09qjtpL5eoWUL6Y24Bz+GQfPfFqOxWvL6cqTtZUGVCn8QMzy+B3pg9JomIb+8ptjLo5DvORrADOdDNrehErFTl7fQyiI2LxVrHWOtYcATjt3dzvigHnlnVZdBsndNoZWsOxIzUXznEbcIaG59GX/v1kRB4n0pRH2SsBUhnmFghD8DvmeBqYElZVdhfEE/YSIE5lKoDKFz3aPOwAjryeLFIuZeOXwMFwnjnwNHAcwGwCKZzEXks7A4DT2TNCdQeb6aaVGfRJbq5nZ2jAsSM1F85xG3AKcjPoc9sOUf/ihbT60gWWezzDrsfGhBcrBWUtmEj0G0+DXuYiH8uFcqhOAEcuPxrQwdQKbULnwvZwdAloO0PsIBjh0AiAIT4kVvi6cDcH4HT3jlDtwRa6bmkq3cUdH+wMDTh2pObCOV4Azr//8gzt655HVZeW0IJ8dfvc/DgDbGIFmeNJSU0RJU5j8TsuiCLqJQRPg3QEeGVQPMylG7oBOJjKVHa1N8XerT4ueBqU+IRHMjU13bUytQCcHq6BXHPwHH2wPInuuW2p1amJ4zXg2BKb85O8AJw/7G2lJ19jHudS5nFC4nFUZ4yNBWLYCG0fpEzwO5nqyXmq94l1nKhvLHkaD4q8uwU48jnwogMcRQ4UCqgnwM4aHBgkfDDgeUpLyzBCBCx6sCKtC/ZF38AonT50jt7HOa/3fmJ5rCUM+3sNOLbE5vwkLwAHgVlf+uEpyuZ4nDUr7LXhwMaSCY2j7JnCJoZXA6BjxathX0LcJo3nEC4dwf41LzzTbcCRd5AFxow0ifhEXsPriHUSXkdeJ7RlRkVFuM7dBJyBoTF6hzWcq/LG6L47VthaDg04tsTm/CQvAAdf17/+xkHqr2AeZy3zOBYKI8knMgOO/Deo51DTYV5lZWZRkkd1eaeC2tAixh65qboyXgFOKPB4mVs2ysDcP9AviqHD/AXvNqVxeQM47x4+T+vTg/S3d9trZKcBR3WHunycV4Dzb//nNO3vsc/jhAMc+ego7D7QjwziNMrMynSt2ZvkaXCfeFW/8xpwBF8x0QsK/+9mMz8EYWIdoNlgHcIVLPdCwxkOjNPJQ+dpTdIQffGzl9h6IzTg2BKb85O8Apxde87TT1/voBLOq6ost97XKhrg4KnFZmdtB7k3UN/BF9gdsmyE5BriyXvEA3AmtQ3BRxmBk0bXDLsSI8GrwXxCbhy0mkgdPr0AnEBwnE4cbqWVowP0ZS5NYWdowLEjNRfO8QpwGriI+t874HFiAY58dPA6AJ5w6ryKeEAIw80NF7dbPIPKfeUx8QScKTPLnFlvrYC82awF0MTqRe8F4IyMjNPbR9qoaqCXHrpvjRVxm0w9XQ/HluCcnuQV4GBe9329mgYri2nNugWUlmqNC1EFHPn8eBH6+/sZNJKFeg/CMtqYCk5znnzoZA0SAThSQwSxjOhglTIYIO5hPo1w+YisrKxpPE205/cCcNC44e3DbVTe3UXbPrfOlvi1hmNLbM5P8hJwvv/zd+lA73xayvE4RRbjcawCjpQEVH1oPOATQCyHBsyohN87l6r6FRIFOGYzy+j1bSSFXlAGgwEJhDB4M2g0Vk1XLwAHuWRHWcNZcL6dvv3AZerCNh2pAceW2Jyf5CXgvPzGOfrZG53M45Qxj6OWVyWfyC7g4Hxz0BlABzyDmafxU4HwRAPOlJllFNeSHS3A74AfA9jA62Q3+NILwEF67OGj7ZTXcJ6+9yVrtYwngVYnbzoHDztX8BJw6psH6B8efYdyOB5n9XJr8ThOAEfKQfA7bGYJs4GjXVM5atmNdAQ7cg53Dkyabu7aUFjok64NPEloO4FgkIIBLu/JoJPJ5lMsnibeJhXCIg4daaesmhb6wVfeY2s5tIZjS2zOT/IScDC7v/r6QRquWkhrOB7HCo/jBuBI6fSzN2V4InEwg80Cu4mDzqVtXGGql/Y4d23oFF0b4uWGj/YMSKAdZHMUCbRpXDYiK9N+gbQpTcL9OBzERh1kDSf5RCP9+KGNtpZFd22wJTbnJ3kNOI/87F062J9Ey5jHCdd8PtITuAk4wSBzFPy5BuhEK4PhXJrRr4Be5jBbsNlFIB6nHqARXkFBoeiOkEhTz1w2Io2TLDHHVBdaIMOkMtJUrDkNou2LFK6bXX20g8YPn6UnH77S1rJpwLElNucneQ04/8XN8n7xFnicclpSph6P4wXgIL4GxblBKsPcMqJi7SWXWpU8zCeE+BtF3qdc0VOdNzmVAt0RhIs+dhErq/ePdDyK3EMeMJsMnobTEVDI3ceAA015/9FOCuyvpV/881W2RKEBx5bYnJ/kNeDUNQ3QV35sncfxCnCkxIIoc8ovGmLfYGaplLe0I20Z5WvUJL6w2V1oq19Zw1gQuMJr5CA6L8qERZlXfn5kmeP5U0zlPWcC4FQf76aBt87Qz7ddaat8iQYcO7vZhXO8BhxM8S8fqqbA0hJay/E4qmq614AjRTc8bGSjwxODcpdulcEwl4sA0EQqnROpt7hoQsdBiUBEEN1uAQ88eCjrahSyN7K5Q8dMAJyDJ7poYG8tPfa1yykj3bq5pgHHBfCwc4l4AM53n3yHDg0mW+Jx4gU4hsxkmsSQ+NpHalGiKl/UXYZnTBQ8j1GWIRLgyHuhVrJbZpYo9cFaTRrHKMF8itSqZyYAziHuwtnPgPPDv19PeTmxi69fAKpwi7f2UUWpNe+p6h5w8zjdeTOCNNG1ARX/QntDvfRqC/1yb5clHie+gGM8kPTSoBkbaitb5Xdk7RyQwaq5SrEAx5gZNxQMAsSMOBmr2g54GpDCaEKo4qWbCYBz5FQP9e6rpe9/fh0tsNt5UwOOm7iodq14aDg1jf301Z+cptwNi2nVMrUvSiIAR0psqlvofK6/y/zORJvZSBKd4mkANNaa8akBjnFn3EeYWaw9qbjRkYYwxEADMypcF8toz+N30vjYuz3Uva+OvvPXa6hsoXX3vTap1PDB9aPiATiY9F8wjxNkHkfkVSm4WxMJOFLIolso/0DTgWaACFfzkG5uRDHbbdtiBXDkvWUB90jlTjEvmE4ATgCNVRNxJmg4x0/3UhcDzra/uMRWNQINOK5DidoF4wU4/8o8zmHB4xRzPE5sV7QfAAcSNLqFouYL8zus7RgvL8fTMAcgPUlOirzbARy5soLfYY3H3DnCKMmKWkHpYr6RykZE2x0zAXBO1PRS576z9NA9F9GKJdlqm910lAYcyyJz54R4Ac5LrzCPs7+bSjmvqqI0djyOXwBn8uVmNzLa2MA8SZ5Ikwjn5ra6Kk4AxwBEI7AuyOkIAQZFeLTQhsWJm38mAM6p2j5q33+WvnznMstpM8I81aSx1a3qzvHxApyaBuZxHmceZ70aj+M3wJHSHmQNYpgzp1NSkkWZBqdudKeAAwBEWQ4EMsLFHa7qntWdMhMA5x0GnLYD9fTFT1TRZRdf2Mc+1jNrwIklIY9+Hy/AwfT//B+raXT5RDxOjP7YfgUc0WqYtQhoE7IzgeFitjecAA4ihGVHixQut4o0glhueJVZzgTAOV3fT6376+lvbqmgjWsKVB5r2jEacCyLzJ0T4gk43378HToamIjHyZ0qtB3uSfwOOOBNxjgNQfTPYnMGQXR2tAs7gIPaNACalBTu2cU8zXx2lSNWZy4BzhkGnPPVDbT1xnJ67/oiyy+DBhzLInPnhHgCzou7W+ipA91UcmlZzLyqmQA4cgUAOAAAEMyov5PM5pbqsAI4I8ERUZ8GRDAADoAzyTHNMcCp5VCLlgON9OcfLqH3b1yoKu7J4zTgWBaZOyfEE3CgBv/jE2o8zkwCHLkS6F4AMwd5SShzqsLvqACOKCjG5T2R/wXzLVxfrrmm4SBHr7m6ke75wEK6dlOx5ZdBA45lkblzQjwBBzP+H1+rprEVsXmcmQg4ckUEt8I1eNBNIha/EwtwVK811wCnvnmQmg420Z1XF9D115Rafhk04FgWmTsnxBtwvvXYKToWTKXlXB+nIDdyDsxMBhysjOgWymYWzK1oRccjAY4sCg+zCeZTrKLwcw1wGrkrSEN1M31iYy597IPlll8GDTiWRebOCfEGnF//32Z6uronZjzOTAccM78DLQW8S7i2KqGAI9vegA/C8WaeJtqKzzXAaeJ20vUMOLdemk23fmiR5ZdBA45lkblzQrwB5526Pvr6z85Q7mXR43FmC+DIVZLdQlPTUoXGIyOAJeAAYBBPExgOROxiqQHHCHJEAa6WtmGqO9hMN61Mp0/euMTyy6ABx7LI3Dkh3oCDWX/2qweILiqjdeuKRKnNcGO2AQ6eUaRJMLeD4EGADtzoAJzs7GwBNhmcNgHex046wlzTcM63D1PtwRa6bmkq3fUnlZZfBg04lkXmzgmJAJx//slJOj6aRsvXFTOPEz4eZzYCjlyxUf5Ki/idQJAzwMeMHukcT5PkoO7vXAOc1s4A1TDgfLA8ie65banll0EDjmWRuXNCIgDnhd830bOHe6mM6xwvLgnfE9xNwAlwEXXU6LFaRyachGWkMQL/7A7vAAf1cqxXvwt9DhFpzD+pMaLBVZ7fiyLqMKnauwJ0+tA5eh932Ln3E8tVpjLtGN0mxrLI3DkhEYBzqraX/tfPaymP86ouWZrjuUnlF8Dx3qSaO4DT2ROkdw6eo6vyxui+O1ZYfhk04FgWmTsnJAJwBI/zIPM4F5fRpVwfJ1x5h9mm4cSHNJ5bgPPu4fO0Pj1If3v3SssvgwYcyyJz54REAc4//fgknRxjHofjcfLD1KSdLYCDOJz4ucXnDuD09I3QyUPnaU3SEH3xs5dYfhk04FgWmTsnJApwfsU8znOH+5jHKWUe58Js65kOOIkJ/Js7gNPbP0InDrfSytEB+vK9qyy/DBpwLIvMnRMSBTgnuWLbN/4PeJxFzONcWOd4JgOOajoCVtDd1Ia5Azj9AyP09pE2qhrooYfuW2v5ZdCAY1lk7pyQKMDB7O9hHmdeBB5nJgJO4pM35w7gDAyN0tuH26i8u4u2fW6d5ZdBA45lkblzQiIB55uPnqRT4+BxipnHmR6PM5MAxz/lKeYO4AwNj9FR1nAWtnbQtz5/qeWXQQOOZZG5c0IiAef5XU30/DHmcS69kMeZCYDjvwJccwdwAoExOny0nfIaztP3vrTB8sugAceyyNw5IZGAc+JMLz38H7WUz/E4F1dNj8fxO+D4s8To3AGc4Mg4HTrSTlk1LfSDr7zH8sugAceyyNw5IZGAg3a44HGSVnE8ztqiafV4/Qo4fi6inorWMKKNjbMxEyKNufoHHWQNJ/lEA/34oSssP7AGHMsic+eERAIOnuDhH52gd+dn0ArmcVaXplF+6jw61sFtTzjfKDUliRMZifLT5lFl9nxqHxqjhn5GKYvDjUjjEdkmhnOfUrhNDMpG+KFNDNoAQ1YBzssKDA+61ybG56kN+FhVH+2g8cNn6cmHr7S4IybaxLT1U0VJ+Eh3yxf08ATdWzyCcCP1Fo+2Fs++3EiDqal02zXFlJs+X/S25NQneqdzhF4/N0o3VqVSaeZUz8uzfeP0zJmApeV1Aji+boTHTfDQDA9tf5M4VwzDtUZ4PgccAO1+BpwA9xf/xb9cZWk/4GCt4VgWmTsnJFrD6egOUOmCdPq7L36Bdu3aJR5q9erV9C///hj3t5xHpw/uoa1bt04+7L59++hQ+yj9vnFEWQB2AUe11S9MEJTZkC+98sT4wFhxOOGuFZdWv74HHKIDb3fR4N4a+vnDV3Djv/BlTiKthQYcK7vUxWMTDTjpnPn7hS88IJ7oGw9vo/7gOGWzWdUbGKfucw10880307PPPkvliyvo7/i45uZm+rdHH6ftx9W1HKuAg57cABsUQU/nshHJSdG7MABwRrlrAurYIC8Mmemqwwrg4CUJslaDAa0mVvb7yOgIdwsdEN1C0aIYPdJVxkzgcPAcB0900cDeWnrsa5czd2UtS14DjspO8OCYRAIOXs6WZq68f889tHPnTuoZHqdeVlxaBsZoRd58eux/f5eamproi197mPa3jdLKseZJAHp1qJTODRovX6yhCjijY1yHmMuBjvKLir7cqi+ovP8ov9joOQ5NBw3pwD/FGqqAA6CR10YjPisDAIp+40kMnBlctjRpfvSXc6YAzqGT3dTPgPPDv19PeWHy8aLJSAOOlR3k4rGJBBzUW3nmmacEqLz44ovU3t4unuyRRx6h1Zdvov/1D1+g8vJyuvnPttJv60foM6tS6SPXXUcPPvgg9Sy+go53sqtCYcQGnHGRYIkWvnghoQ04GaIYFms9yQCeGKp+LMDBtQRPw+gFrcbJEPwOP2caVxo0ukmER8SZAjhHTvVQL3M43//8OlpQoKa9SflpwHGykxycm1DASZlP33vku/Tkk08Ks6miooJ27NhB27Zto7f27qMvsgkFwLn+U1vpxbNB+qu1aXTj9QbgBKuuoAOtzgFnmD076K6QysR1erpaLykVccOXBjMLpDO8WZGUkkiAg3MBNDDT3CoehnnDvBoaGmCvVkB0g0A/8tAxUwDn2Ls91L2vjr7z12uobGG6yrJMHqMBx5K43Ds4oYDDX//vfc8wm/7hK1+n1+uG6EOrsie1mOeee04Azsc/s5WerQnSfevS6PqPuKPhoKkcvvb4xkOrSebmdV4MvOAADgBOODd6KODgZcfx4zDNFHgau3OGmx/PD2DE86N53+TXfwZU/MNcj5/upS4GnG1/cQlVllvr764Bx+7OcXheIgEHnp1n2aSC5+kLf/eP9Lc7mugHn6mij05oMW+99ZYAoy8wh7OPtZlLxg0OB8f/7J0AtQ6qxeSYTaox5mlgPqEdC8wKqzyNXXELfoe1FnA7ZjPLDDhOeBq78wK/A3kkJycLecxnfmemaDgnuOJA576z9NA9F9GKJdmWRKABx5K43Ds4kYADU+F8S+MkEZyVX0q7XnqOtm/fTi/+5iVqarzQS4UnB4n82EnrXqphcBhMnoIQxk+8B+stNMbaC8hf4UZn0hyAU1BQREEGIzd4GrvPBLlI2aQxh+X3msZ4zlO1fdS+/yx95a7ltGqZtQA+DTh2d4rD8xIJOJh6GvM4b755YazNsfYRKs1Kot+98JTgdDAQn/P444/TK82jdIC9Vqqjn1uzAGxgNql4aVSva/c48DoggzF6ezopJ7fAU/NJdZ7SSwdzK435rKxMa7xIuPugiDqeFZqdG0P2pcK13mHAaTtQT1/8RCVddnG+pcvrrg2WxOXewYkGHHAoqRyLYw5dqekZo/+sGaY8jq34yJIUWphhRBoPccLePgaafefVwEZ0seR+TwiDl+kIbm18N1YAZlZ3VwcVFnLrAZ8MzAlpEsHAkFiTTO6fBXPL7vCqawPmc7q+n1r319Pf3FJBG9cUWJqiBhxL4nLv4EQDjnwSAMp/vXaO9ncxOhTnUSanOchcqhIGnAL++wlFNziIWvAS8MRkZWbx1zqNvUXGlxZRuuBQYgXNuSfh6Ffq6GjzBeAIsppjfWDmyRii4aFh6h/oFx48g9+xrqV4CThnGHDOVzfQfR9dRFdfVmhpybRJZUlc7h3sF8DBE+3Y2UC/OTVI5Vwfp7gwdRJwrDwtXNwAG3S1BNiEhppA2wkGDQ3JSy+Q6pwTDThoxIeXD4IygDhk5vwrgA66TgB04Eq3MrwEnNrGfmo50Eh//uESev/GhVampXOpLEnLxYP9BDiHOXL028/Wc32cRbR0EXuQJrLFVR4X2gza5SINITOLo2ljNIQDcYsvOuJcEBlsp72uyrxiHZMowAGPBBmIPDAkf8Zo7Iei8AP97N3jKGy0KYbWozLcBpzUeWO0qiiFanu54l9dPzVXc6T6BxbStZuKVaYzeYzWcCyJy72D/QQ4w1zF7f99qJrS1iyiVZfkU0Zacsz0AMHTsEYDM8pwc6u9CFKCiHkBEQkzwmrKgBurkAjAEWDLAAKgiRUJHfqMAHbIG+YV5B2L33ELcLJS5tH1S5KpPIs1Mf5A8LJRTdcIffc/auhe1nBWLbuwED/mDmANNzTguLF7bVzDT4CD6f/j/36b6tKyaenqIirKT4sIONhIRjrCMHueMiyr+mZRYU8CdLAJ0SrXSvKlDZFPOyWegCOTTPF8qrlekZ4Ppusge//AjwF4ImmIbgHOnyxLodRuI4RCDqTAZJSso6ykcWprOjqtqgCOQbyWBhynO9Tl8/0GOP/xm3raeXqIytaVcnGkjLCAI7tYpqXxZmfzyS1zSJpZuCnMrHgQy/EAHPA0IMsxoNHYKaMRbtsJ0GczC90qsA7gzUKHW4Bz/2VpdANHmSPR97qP30bH9hmhFHve3EsNLQO09/UX6YUXXqAnnnhi2hQ04LgMGE4v5zfA+cPeVvrJC2dpHqv7mZkpVFCRSxWXldE8BgCzOg9COIlzlLwYMLPg0QLgeO1G9xpwZAa73Xo9KvIdZe0QxHI4s9YNwOFQLfpLTmu58oqNIueuJ6uc1hQm0caNG+mpp5+hpLQFtOeVXwuN5uGHHxYfoEhAI59Hm1QqK+vBMX4CnLPNA8KkApdjHrmlbGL9UbkgLGE+QbPxfhilO+2WhFCdn1eAI4HGyFgHMKulgajOO9xx0HRgZoHXwTqBuHcDcHCvT16UQt/52hdFbt39998vknwBMJ/9/75KaazBPfPLH4kkYLO5dfXVV2uTysmCenGunwDn7759hBrODYZ9zMUbSqiSvVfxHkZ8Cicl8J/CzLIRixJtzm4DjjSfUIsnUfFGAJ0BkUJiZKNDW0TiqpPxpytTaPevn56MOse17rzzTrr1jnspmQEHVSPlkBUHoA0tXrw47G21huNkNRyc6xfAOVPfRw9+/+2IT1J8URFd9L5KB0/q7NRpbnQU13J2ucmz3QIcczkMN3kau49pDr5M5aLzRv0de+M9C5Mo7exewdk8/fSzlFu6mHK5KuRVbGKBOL7okvdM1sPBhwEm1V133UU33XQT3XbbbRpw7Indm7P8Azj9DDjHIj5k9uJ8uuT9VZSWaj3a1U3JgXwNwI3Omo7TgliYlwScdI6DWZk/j7hlNtVxjAkKyauOSfNpIkpY9Tyvj0P2+zC70Uc4Ix0aFwqbpaRYC1vAHLdUJNPJ3z0jSOFv//AxevJUkO5YmUr/9BWjQNuWG++m1cunkjeVAae1jypKw7vTvZaNlevrrg0RpGWna4O8FKrt/c9/OUpd/LKFG0l5GZS8pJDyF2ZTYX4KFeZZ37hWFjnaseY0CQTMxYrf+WhVCoPJhUDZMTRO33q9if77+lK6uCCJs8WNu3ZzPefnzgS5LU503sUoeYG6Oc7d3G7JBteZKvLO0dwMzACA4eEhUScaCbTpbGrFKnNqns/G4iRKqTM0HJhJuSWGhnMFk8ahGg7OkyaVdou7uaouXcsPGk792Vo6W1dDwaRF9Nh/dk+E2k894IL8VKqqyKSDp/poPCeD5udzQfCCTCpakEFFDDyZGc74AbuinMbvRCmWdevyFHrux49MIzWR+f7tHz5OdZ2D9J6yTOFxkQMvUeWlm+gXXPMn3AD/MArTgYngRPE0Yec1Ec8EfjpS2oi5DIaVEiF3XpxCf/jP6RzOAw88QO/d8nFK5+jjb37jy5NdPzC3aPwNfq85HLu73uF5iQSc1vPnqP5sDWXn5NKSJUvFl+9UbS/9lN3i8FhlMZCsX1VAf3pjBYNKMms/AXpl33mqPt5DZ9qDAnjm52VSTjFrPbmG1pOc7Ba7oi5Y8DswH1DPZj5rG1NdtIxrfJLVMPJd6AAAHBVJREFU/+981VD/4WGRo4uLxgMrP3bjR0R8yS233U7PPGWUWN27dy/tOD1CDX1TGh/q6UB7gN6DAvRuxdOoP2mEI3lCAX5+vMQqGh/4ncHBflEEDWVdVbyOBdwM8frKFCrmRF7ke0EGzSyb77zYTHdclk2XXpw3bXLaLe54Vb25QCIAp7enm86yVoP8nCVLqii/QD3TF5t6YCjIpQl66ShrPHuOdlJfUgoDjwE+RQtZ6+EI5dxs+yUV7EpaxO9MZFwbYGCA312XGHwDtJj1H7qFmrh76GHurXVpURKlMhmKGs0vvrSTnucyqh/ll+qmG4wAtyXX3EyvtSDR1Cg7akRCxy7Mbnf+ds7D8xolVK3HLAWDAVFPGiYXPFoqZV6zksboosIUwXM1dQXp7SNtVDXQQw/dt1Yp/kY+o9Zw7Ky2C+fEE3AQuAeNpqO9jSoql1JpabntJ4BGMcjAA+3iVE0/vXm4g/af6aMkBh2ATyZrPQW5qQw+KUw0x8/kmkqTgBbC2df8Iv7Z6lTaes+n6O23p7xwv39jL50bGKfq/3pakKH/9ugT9MNjw6IzxTe+bGhD1965lV6qCwitBt54p+kItoUd5kTMCVUKhft9gqexe33wOzC1kAeXkZEVNXLcXIBrYGiU3j7cRuXdXbTtc+ss3V4DjiVxuXdwvACnsaFegE1p2SKqYK0mVja36hMOBzh5k4EHL2OQPTx7DnXQq/vbqGmIeYQJrSdvIWs+zAPFk2iWZTDw9d56Ged6mRQucA8HDx6k53/9Er3w7FMT3pfH6fETAbrj4lT6lwcNwPnIXX9JzzN5HLZshKqAXD5OACqX94BJ4255j3EBOsiNg2kdqVWPGXCGhjljnDWcha0d9K3PX2rpSTXgWBKXewd7DTjtba1sPtWIGsLgaVBBzosBbadvMEDZGSmUn5NOR97pplcYeF470sVEc7oAn9SiLCosSGcvV6rgh+IxoIH9txWpXK2QDSzWBsBFFKXPE+bVM+xxeXPPHgE43+duoj86FqBPsfn1zQl377V3/BW9bKGlsZfPA4CB+SS9YrE8c3bngiaEMLNQ7D5ct1Az4AQ4Iv3w0XbKazhP3/vSBku31IBjSVzuHewV4PT39QqeJsDh7ouXVFJRkbUCSXaeEF6jgcEgDbHWk5edRjmcizXIavcrB9po975WereNieYJkyunOEt4uKD1xKoFY2cuoecsy+E+6VxOAXWaP7kyTQAOPCkNDQ2Cw/n1b3bSjncDBI/WTTd8RPxb0vIr6fUW9R7qbswz3DWc8DR25xQIcrvlQS5zyiYpPlboGophBpwgR4AfOtJOWTUt9IOvvMfSrTTgWBKXewe7DTi5WSnUWF9HLS1NtIR5mvJFFe5NVvFK4Hf6WdsBZZuXzQ3uuK4OBqKZXznQTq9Ut1M/x4NIonlBcaYAHq+I5jvZSwWtZhjE7/g8evBLRo/0Rx97Qri2b7x+updKdK1gEnnH6aBoe5yoIQugg7SGCRx//x/XsZ7otJGWli6AB2kSkpNjnwMdZA4n6WQj/eTrV1gSkwYcS+Jy72A3Aefo8Xepo7WJFiwsFuZTcoo3zeVUn35o2OB3sEHzsuAynwq+e51BZ/f+VqpmwtlMNAN4oPmkuhjRLBv4yVbGRUVFopf6npYgZc0bofxA27Q6LwhYO9k1Rr/hbqOJGJL4xp/QMLwyn1SfzegWOii05ZRU1lxzsijINuo7r9VR59lucZksJsluv24x3bC5VOmyuoi6kpjcP8gNwEFvpZqaGiYpkqhgQTktKCqc1Crcn7H1K8LMAr8DbSeXTS3zl/pc+xCTzKz1sNnVMgyi2fBy5cPkYq6ngON7nI7/flGqiB+RA/E3R7kg/J7mIHV1dtDdl5dRFZtccKWjbM273QkCm4lC8yOIp/EB0JjlDnNZdpMY6h6mlsPt1Nc6cMHSfPKGCrp5S+wkXw04Tne1zfOdAA4q7gFoenp6aNmyZVRSUsK5M6McoMdvLo+MdK7SxnWJ/TBA3g4w6CBALZ+BJ4vJ5dBxiGsqv8Jcz6tHu2heLoffTxDNRYUG0ZzJbWvsDtRvgaeqmWNwGvunzCTZeTOHS2hW5cyn09wiZ4C5iXgPIx0BiY+G+90vQ3QBFUXeEYNkhBk0HGmmun3NYaeI3z/29Y38wYu+VtqkStAK2wEcRHGeOXOG6urqBNBUVVVdMPu+gSB19w8z4HBRcwYev0TFIvGyfyAgzARoPOFidPoHR4SHC5rPO+eHKHlhDiUVZVN2ngE8MLncqlIR2ls83tsALx6ABi80Sm/Eo8qhyjPiwzA8PEpo0yxSOfgnwEA8wn/vOtZCw+d6Il7mofvX0MrK6J04NeCorIIHx1gFHPT6BtiAh1i6lNMRwpSVlNPENu7mdIRefsGhUQB4/DKGhoNMLAeF6ZefkxYRENFsDR6uV5nzGeDAtPn57DFhs6twYTot4IjmnCxnEc2JAhyj+6ehPQB841XH2Shaz832GDjg/YKnCT/4EIwEjd8FWUseR6wP2vmIP0eMv/O/4+9j/CETv4swvvX5y2hxafR2NhpwEvQmqgJOV1eXABoMAE1BgXqnQ2ysTjazsJkAPGmpzl5St0QlavIyqQzggRsdGk+08SrzPK+w1nOwlolmkceVQVnFOcLDBa7HTumMRACOdHOLvCeYTy5YcCLyGGCBPxkMDCAxAAUFzATIMGCMCdCYAJAJUJkElkmgGaGCbCM3rjCP46qQJ8dR4wUTYQxtXQH64S+NvRg68jjM65/+5hLKz4/e+lcDjltvkcXrxAIcFCwHT9PR0SGABhGwdscQq8hdvUMidD0zI5WrwPmDK4CrFcTyCHtD8hl4MtOjA2JL25AwufBzPsh1cSbAJx8RzQAfC6Uz4gk45iJiqjyNzIiHRjIFIIaGIsCEZRdkzWSUNUaplUzXTqY0FGgn2WnzGUAMgEbqSX5OighHyGB+LCdrPhfOz6YyzocDlxRtoNj+079tnHYIPFX/49YiGh1s4m6mhVE1cA04dt9ih+dFAxwADX7A0eDHrfKaMLG6+wKUxoRyViabKbF2l8NnVD19mF8IEMvgm/LYzML8Yo2DJ7qEyfXa0W6RvQ5zK01ENKcpEc3xABzDzT1mpCNMdKOAdie0EWgfJo0E2ogZXEY5tMAMJNNMnEmTZ1RkvecxeABEjJ8UypsAFQEs/P8AF/NHxgjUDBA+RDBrszlQ08rYe6RDeBf7B0e5kFYG3fj+MlrIcocbvba2VvzgI4mf0KEBx4qkXTw2HOCcO3dOmE85OTmCFHZSHjLSVLHZwO/0Mfhkc4xMRpq1zeaiCC641CD4HSa9Yf7l5agBYm//CBkmVxud6RwR5ha8XDkLGXwQ28Nks5knaa/tou6WXg7jH6LiJUW0YGmB6EzhxpCaCIBDEK8Tmohh9hiAMgLzRZgwHMlsMm1CtZMUhqk81kAkiODPKWCBuWOASUYMr1DocyEVBaYsQCaXTVkvPjrwomIf9/b2TnpR5Tw04Lix02xcwww4cG9jgYLBoFggEMNejwBvdmg7yDzOYlLZP/wO99Qe4vIJ/GKA38llUFQd79RxRDMHFb5ysJOG0vhlAviw9lM0YXI172+g1tMd0y6XV55Dq7cs53o6kc1MRNZCXhJQpniSCRMHpCt4EjOIRCBg54nwACbMw2ghhkZiaCnZme7ybZg/osBh0oEzi0fYBAIusa9TOBAV+zo3N1cX4FLdzG4fB8ApLUwTptP58+eF+hmp0r3b9zZfb5AjR7v62Zzhjzzid5xW+XdrrsjdGWSzAtpBPms7aD+sOmDKCPc6az6Hzg4IjWccLt4ILt0FKxdQ8boyQa5K74306AThHuYcsQt4kjD/JniSnGQ26diND1NmwszJzwXAGCYPzJt4DilHaBaI+s6IwZN5MTfkrWGfFxcXU2VlFbX1BJkziu4+92IeVq85q2oaHzx6irramgQZDLCJ1SvaqrCsHt/D2k43Aw9e7Cwmln1C7wjNAuYfOAjwDVYJ7+bWIZFK8avfNQsNJdyYByK9sohNHQaWCe5kkjNhEMpkngSEdAGDifTYwFwDeORwDlty8rjIgs9hjUyFf7K6NnaOB+iCpxlgMxVZ/EioTeRAlUGATmNjIxUWL6LL1qxM5HSU7j2rAOdMHTP981KotLjA0tdbSVI2DwK/09XDTdX4pctkHsVX/A7KYEzwTjAJrHIPf/7VA9TRHb5WMcD16vVF01zAABPDPYwgxQvNLWgMXX3Dgg8BQPsr1mlEpJRksTYDEt6qrGxun5inQVbnWjs5HGCEllfFToOIeUGPD3AVcFpaWujo0aN01VVXCZI23AAinz59OuJjgWvZsMFaPRDzxQbYnOnuGzKib3ljpPrEXY00iW5+mRDZjhcpHva+yt4RZU7hXWGtB+ZBjgV+Z9ujJ2n/Md7sYUZVeSZ982/VC0n1siYIbTCd45oAzH55oeHtA/cFDhz8VzwrLkZbP2ipXaxBw0OHeVkxj1X2hVfHOAKc3bt3ix7ZsUZ2djZt2rRJHAbAQTzMqlWrLjgNv0NQnhPAkRftwQbmAD3hncHX2yWvSaxnjfV7fJHwYqGUJV4s1RiSWNd1+nuYRgAeuJthZqUrlDLdc6idtj9dSz190zPBEYtyz61LadNlsYn6IeSr9XA8E8sDa+UXeSAmB0ADuUAeseKZnMpf9XzEH+HDhQ8r4qysfCCi3QPvXn19PW3evFlpKnu42NqaNWuEYgEcwDtbXV0t/oykbODCjgEn1g3gxjt27Ng0wPFSwzFLSy6OjL5NtM1tnhu8Wdg4Mk0CAYR+GChzCtMBvAletFgAcOhEN333Z+8QXOkYSDT8s1uq6P1XRC9Shhe6k01N5BmhsqF/PHpTEdt4fisePa/XDx9R8IJZzB0VMIfk1pYBePT19UWcvllhwEGwZBAXBCXCrCQcP35cKBPRFAZXAAcBXwCR5cuXC7IWIPPmm28KV/SKFSsuAJx4aDhm6UEtxlcUX2+YDbKIldcbJNb14S1CtDK+8uAs/DIvzBvuXqRK5GbFTpOAF6q+ZYDeeustuvVjH2ASOjp4whToYbAF0CBK2y8DZi/AFtodtId4VE9UeXaDJuD6OYLkT7dM8ke6h3xP8ftFixYJ8tlMh0gg2rJly7RL4N8RPFtaWkovv/zytHOg7axcuVL8LtxwBDhANExS8i6hHI7ka/AwcE8DhFSHBC/V41WOE+YMLxz4E3y5rHpnVO5h5xj/lsFAtcEJs4JfQITbRxu7du2ia6+9NuIhIut+Qv4i694npSPAh8B8woBW4yeepqcf8jeil+NBoptpkrVr114AHPIdBwgBeFDGxRz9LEEs3LmQryPAMe8s3Bx8DmxATLqioiJsGDZAClnZcpI4VtqNeBiUq3SDw4n2YmDTg9+B/Qt+xy/mjG/LYCBNQhKnUdIkIgGOBFRomH4izGFyA2hgRuKFDldXyM4HxOk5cL9jjyJtBpoWCq15McI5cMJpOPLeUAIkHQIlwvweh84Pmk840HEMOFLLCb04CCRERYZ6rOTxkQTo1EulujDgEMCjIPQfZlY250H5Yfi7DMYIRyxzGQyYHGHKYIQCzijLGAXMYDL6LSRAZtZD00U6gj8YNGKTjisnTjo7IpcacXOvqnI4UAjQhUKSy5He5WjvsG3AkaqV6oNLQPKDhmOeM7oiAHike1HFO6P6zE6O82sZDDwT+B2YWqGkqhlw8IWGOQDvTma6f4Ieoc1g7qkpzIew5mCuDe1kvZyeK7x1zOchqRjziqdZZ+Zk8BzQTiRvYyaI5TOarRL8m/nv0bzQrphU0VzZ0HLKysom7UCp9cRanFBWPNbxbvweX5ZuXnBRpBwb0Sf8gq/LYLC2A01RlsEA4Gz6o80ikRUvMvLJ/MLTgAcB+To+jvmmxyzb6caeUrkG5AeNBkmoiTLrVDWccIADzgbvtaRF4gI40dzckcijSGipskheHQMtB65HbACVIlZezSPcdcHvIArXd2Uw+MssAuM4cPhI9Ru0+rJNwuPmm8DGif5e0GywplbLRni1xnKvYb8Ze80bnkZl/k40HFgsGDKuLvTvofe3bVLJC6lqOFZNMC+8VCrCxzEI9oJ6K786fgn6QpoE4jAQlYvaO/HwWqjKDKkbB956hf7omg+qnuL5cZKnQfyVV2Uj7DyE4S1l9zvHLOWxtpWMLN8EDrsajiSdzW5zaDuoUBiubo8rJlUC5eT5rfESwZuFACvVIlaeT4pv4NcyGK+98ntfAE4iykaorDt4GnBbGDBD/RJ3FarhmJ8lEoeDWBukMQFszPE8ODc0bsd8PccajoqgZ/oxoqofAw80Cnwp/dK1wW9lMBINOFPlNwxeKRFlI8LtdRHxPuGtw/7J8YlHNBHvpQYcRakjyRFfJ3Ap2DR+C3mHip7oMhiJAhy/lY0wbylZogQlNwCCfon5Utz2rh+mAceiSKU5A+8CQMdP/A68Q0ZpBy6DkYA2NokAHLTIgYcR6wAvj1+yzMEfdXNSK9I83ExHsLhdfXe4BhybS4INBW8Wqvnl8tfLL14ZowxGgMtgjMc9qjeegOPnshGQP8woAOBMKRth8zWwfJoGHMsim34CkhBRbgKJiNB45nIZjHgAjl/LRsDkhosb2pbVutEOt+CMOl0DjgvLhRB+fNVEdrXPSMF4lsHwEnDMjf78VjbCcCrwR4fJYNXOGC5suxl5CQ04Li7bZFU//toBePyiTserDIZXgOPXshEibII/NChjgehlpEvoEV0CGnA82CFIcIQbdK6VwXAbcPxdNoLbAXEdIFQb8EuWuQdb2fVLasBxXaRTFxRlMPgLiEhXmAF+GV6VwXALcHxdNqKfy0ZwUiqAJpHpCH7ZS1bnoQHHqsQsHi/MGS7qjiRMmFkgl/0wvCiD4Qbg+LZsBMdfgRRGdHA+gj99ktzrh71kZQ4acKxIy8GxQ8LeHzbKnPKGRXcCPww3y2A4ARw/l41A8N44/4c6wvEsG+GH/eH2HDTguC3RGNczymAMiyJWyM/yS5qEG2Uw7ACOn8tGwBwGYZ2oshFx3ppxuZ0GnLiI+cKbdHJR915W01FtEKaWX4Zw8fKLZqcMhhXAQWCi6IfFpiZeaL+UjcA6SO4NHI2fuDe/7BEn89CA40R6Ds+VxZfkV9RvaRKyK6dqt1BVwEH9HKRgAGR8VzaCeRrVFjkOl39Onq4BxwfLjhcQxbXQLRTRyn7hCayWwYgFOH4tGyHjp5AEmp/L1QAVmgD6YNvMyClowPHRsqGwFoBH9K9mdd4vaRKqZTAiAY4sG4Hwf5iQviobwfLG8yHB0k9mnY+2patT0YDjqjidXwxf2U6uNghzxs1Wrs5nRqLaIPLGIpXBCAUcX5eNQCtoBhvUpgHYuNXF0g05z+ZraMDx6eqiBS6Kuo9wHM9MKYNhBhy/lo1AOoLM8kd4gl+y/H26DV2flgYc10Xq7gVlm1fUvYWZ5aduoaFlMAA4GzdtNoqqoyxrnNudRJM86lNDoxkdGxN1hP1C0Lu7W/x/NQ04/l8jMUNzmgReZL+YAKIgOJsnyUx4H6l+XXRtwPz88kLLSo39zNPoshGJ3+wacBK/BsozQI4RukmA5PRbGQyE/e/d80rU3uLKD+rSgbK1DpIrwYf5hYR36fFm5GU04MzAZUO1O/AQY2wegPD0ixs3Um/xeIt4smwE23UI3NM8TbxXIPL9NOD4Zy0szwSeLCMqeL5Ik0h0t9BEA47sF494H5hPumyE5S3l+QkacDwXsfc3gLYDjifR3UITBThIiBUue5YBNBpdNsL7PWf3Dhpw7ErOZ+eZ0yQSVRQqEYAz1cUSwZKpCdfyfLYtfDcdDTi+WxJnE0J3RxDLaB4b726h8QQcmY5A/KSoI+yXch/OVm/2n60BZ5auseGhGRIvIjw0qLvr9YgH4Bg8zTABWGE6zeUull6vpxfX14DjhVR9ck2kFuDl7OGymIhW9prb8Bpw4HoHX2WU99TpCD7ZZpamoQHHkrhm5sFBTpPAi4okSrys6JHuxfAKcGS0NaKsdRdLL1YuftfUgBM/WSf8TjKPCFUGvcgjchtwwNNAq0E6AoDGL213Er6QM3gCGnBm8OLZnTpeYphabpfBcAtwzOkIfsuYtytzfZ4hAQ04c3QnyJca5DK8WWhl43S4ATioCSRbJ+uyEU5XxH/na8Dx35rEdUaIygW/A+8PguacmC1OAEekI/A8kpO5uLwuGxHXPRDPm2nAiae0fXwvELOI30kGMWuzDIYdwJGEtgQ8rwhtH4t+Tk1NA86cWu7YD9vD3A40nhzhRk/lMhjq8TtWAAddG5COIEw6vk8ug5wes18CGnBm/xpbfkKUwYB5MzAcFPE7qsF1qoAje3NlctkIxAb5pTeXZUHpEyxLQAOOZZHNnRNk+gC0EQBDrDIYsQDH6D4aEMXDQAj7pTvF3FnRxD+pBpzEr4HvZ4AESXSTQL+maAmSkQAHdZnhhkc73zx0R/BJf3XfC34WTlADzixcVK8eaaoMhsG5hLI74QAHGo0uG+HVisy862rAmXlrltAZT5bBQJEr5nfMRa7MgGOUjWCtCMmjrNWgCLweWgIacPQesCUB8DEws0QZjInuDACc913zAQE0KIqFf3cS12NrYvokX0tAA46vl8f/k+tFmVP2aKGbZvXe1+iSdVfpLpb+X7aEzVADTsJEP3tuPM5eLPA7fX09tLhsoaXYndkjBf0kKhLQgKMiJX2MloCWgCsS0IDjihj1RbQEtARUJKABR0VK+hgtAS0BVySgAccVMeqLaAloCahIQAOOipT0MVoCWgKuSEADjiti1BfREtASUJGABhwVKeljtAS0BFyRgAYcV8SoL6IloCWgIgENOCpS0sdoCWgJuCIBDTiuiFFfREtAS0BFAhpwVKSkj9ES0BJwRQIacFwRo76IloCWgIoENOCoSEkfoyWgJeCKBDTguCJGfREtAS0BFQlowFGRkj5mUgK7d++mDRs2UE5OjpJUqqurqb29nbZs2aJ0vD5odktAA87sXl/Xn66lpYVOnTpFmzdvjnltgM3w8DCVlJRQfX290jkxL6oPmNES0IAzo5fP28kDXI4ePap0k7Vr11Jpaek0TSg1NZU2bdok/q2mpoZOnz6tNR0lac7egzTgzN61dfxkAJza2tpJ0Ojt7Q1rSu3Zs4eqqqoE4EhgWb58OS1dunTaHHD+m2++SYsWLaJVq1Y5np++wMyTgAacmbdmCZsx+Buz1hI6EQAPRiAQED+RBgCnsbFRazsJW8nE3VgDTuJk7/s7A0D6+vqU5pmdnT2pCZlPOH78uPir1miUxDjrD9KAM+uX2PkDwhQCARxKFOPfysrKpnE3oXfTgONc/rPpChpwZtNqevQsL7/8srjyVVddNcnhgKvp6uoSLnLzUCGaNYfj0ULNgMtqwJkBi+SXKYLDkdxMJBNKazh+WS1/zkMDjj/XxZezMgOOnGCoO1wDji+XzjeT0oDjm6Xw30RCzSOzSSVnCxDCAL+jYk7J84qKii4wx/wnAT0jtyWgAcdtierraQloCUSUgAYcvTm0BLQE4iYBDThxE7W+kZaAloAGHL0HtAS0BOImgf8fOYbtECDVmX4AAAAASUVORK5CYII=;" vertex="1" parent="1">
          <mxGeometry x="272" y="470" width="284" height="280" as="geometry" />
        </mxCell>
        <mxCell id="v2PrhCpYd1FkFinGM10Q-28" value="&lt;h1 align=&quot;left&quot; style=&quot;margin-top: 0px;&quot;&gt;定制化健康度&lt;/h1&gt;&lt;div&gt;1. &lt;font style=&quot;font-size: 14px; font-weight: normal;&quot;&gt;雷达图式，分几个方向分别对数据库进行评分，每个方向包含某几个巡检项。初步可给定每个巡检项、每个方向的评分权重，后续实现定制化权重。&lt;/font&gt;&lt;/div&gt;&lt;p align=&quot;left&quot;&gt;&lt;font style=&quot;font-size: 14px;&quot;&gt;2. 健康度报告以天或月维度出，巡检项从当天的所有任务中取。&lt;/font&gt;&lt;/p&gt;&lt;div align=&quot;left&quot;&gt;&lt;blockquote&gt;&lt;p&gt;&lt;font style=&quot;font-size: 14px;&quot;&gt;· 引导用户在配置任务时涵盖所有所需巡检项（后续实现）。&lt;/font&gt;&lt;/p&gt;&lt;p&gt;&lt;font style=&quot;font-size: 14px;&quot;&gt;· &lt;/font&gt;&lt;font style=&quot;font-size: 14px;&quot;&gt;若当天所有任务中均不存在所需的巡检项，则算为零分；若某巡检项一天内执行多次，如何计算分值？&lt;/font&gt;&lt;/p&gt;&lt;/blockquote&gt;&lt;/div&gt;&lt;p align=&quot;left&quot;&gt;&lt;font style=&quot;font-size: 14px;&quot;&gt;3. 维度：单台数据库实例健康度、业务总体健康度。&lt;br&gt;&lt;/font&gt;&lt;/p&gt;&lt;p&gt;&lt;font style=&quot;font-size: 14px;&quot;&gt;&lt;br&gt;&lt;/font&gt;&lt;/p&gt;" style="text;html=1;whiteSpace=wrap;overflow=hidden;rounded=0;" vertex="1" parent="1">
          <mxGeometry x="235" y="-430" width="355" height="340" as="geometry" />
        </mxCell>
      </root>
    </mxGraphModel>
  </diagram>
</mxfile>
